<svg width="273" height="398" viewBox="0 0 273 398" fill="none" xmlns="http://www.w3.org/2000/svg">
<g clip-path="url(#clip0)">
<path d="M174.069 360.268L169.573 386.582L156.54 387.84L161.057 358.453L174.069 360.268Z" fill="#FCC9A7"/>
<path d="M171.361 384.767C171.092 383.839 170.123 383.489 169.422 384.045C168.082 385.159 165.669 386.499 162.225 386.025C158.637 385.551 157.358 383.365 156.884 381.839C156.637 381.035 155.874 380.602 155.193 380.911L130.797 391.139C129.436 391.758 128.364 392.974 127.807 394.5C127.271 395.944 128.199 397.532 129.56 397.552L169.525 397.8C171.01 397.8 172.206 396.398 172.124 394.686L171.773 386.355C171.773 386.211 171.752 386.087 171.711 385.942L171.361 384.767Z" fill="#1F252A"/>
<path d="M226.755 239.198H232.076V394.336H226.755V239.198Z" fill="#2A272D"/>
<path d="M238.278 207.296L200.169 277.286L176.062 374.518H154.183L169.793 266.46L238.278 207.296Z" fill="#232322"/>
<path d="M206.833 236.909H254.47C261.296 236.909 266.843 231.383 266.843 224.536C266.843 217.71 261.316 212.163 254.47 212.163H206.833C200.008 212.163 194.46 217.71 194.46 224.536C194.46 231.383 200.008 236.909 206.833 236.909Z" fill="#D71532"/>
<path d="M206.547 236.909H252.327V241.487H206.547V236.909Z" fill="#2A272D"/>
<path d="M206.547 356.68H252.327V361.258H206.547V356.68Z" fill="#2A272D"/>
<path d="M231.892 80.5349C241.068 79.4213 249.771 84.9686 253.276 93.506C256.246 100.703 258.721 111.138 256.081 123.243C248.039 160.3 252.843 185.933 252.843 185.933H209.269L209.434 135.471C209.434 135.471 206.424 129.594 204.794 121.902C202.505 111.138 203.372 109.735 209.661 100.208L223.045 83.8757C223.024 83.8757 226.014 81.2361 231.892 80.5349Z" fill="#E60023"/>
<path d="M152.635 116.293C149.728 110.478 142.675 108.127 136.86 111.034C131.044 113.942 128.693 120.995 131.601 126.81C134.509 132.625 141.561 134.976 147.377 132.068C153.192 129.181 155.543 122.108 152.635 116.293Z" fill="#FCC9A7"/>
<path d="M150.06 112.89L172.208 133.925L163.794 143.287L146.534 128.501L150.06 112.89Z" fill="#FCC9A7"/>
<path d="M246.822 113.179L206.754 174.075C205.207 176.405 202.031 176.962 199.784 175.271L151.426 137.286L161.221 120.479L198.629 149.061L224.777 100.703C228.262 93.4439 237.522 91.2374 243.914 96.1041C249.235 100.146 250.493 107.611 246.822 113.179Z" fill="#E60023"/>
<path d="M229.374 89.7527C231.91 89.7321 234.612 88.6802 236.612 87.6491C238.592 86.6386 239.829 84.5558 239.809 82.3287L239.396 41.4153L221.517 41.4978L221.929 81.8958C221.95 86.5357 225.291 89.7733 229.374 89.7527Z" fill="#FCC9A7"/>
<path d="M221.811 70.5539L229.193 60.0986C229.193 60.0986 233.71 72.0386 221.852 75.7093L221.811 70.5539Z" fill="#F2C09E"/>
<path d="M205.703 41.58C205.765 53.7674 215.684 63.5833 227.872 63.5215C240.059 63.4596 249.875 53.5406 249.813 41.3531C249.752 29.1657 239.832 19.3498 227.645 19.4117C215.478 19.4735 205.662 29.3925 205.703 41.58Z" fill="#FCC9A7"/>
<path d="M220.244 70.6776C226.018 70.657 230.699 65.9346 230.658 60.1605L230.596 45.0654L205.726 41.5803L205.788 56.3661C205.829 64.3055 212.284 70.7188 220.244 70.6776Z" fill="#FCC9A7"/>
<path d="M206.386 46.5085L201.602 53.6231C200.922 54.7779 201.808 56.2008 203.231 56.2008L208.82 57.2319L206.386 46.5085Z" fill="#FCC9A7"/>
<path d="M230.567 51.1077L221.184 50.7778C221.184 50.7778 220.38 42.632 218.545 40.6729C216.709 38.7139 215.781 30.0117 215.781 30.0117C215.781 30.0117 220.215 35.4352 221.514 41.0443L201.862 40.5492C201.862 40.5492 198.933 16.7106 228.69 15.5558C258.468 14.4009 257.643 42.5701 251.787 48.1586C247.126 52.6129 239.579 63.5427 239.579 63.5427C239.579 63.5427 239.929 51.4377 230.567 51.1077Z" fill="#4C1827"/>
<path d="M223.765 48.2206C223.641 51.7057 226.364 54.6134 229.828 54.7371C233.313 54.8608 236.221 52.1387 236.365 48.6743C236.489 45.1892 233.767 42.2817 230.303 42.1374C226.817 42.0136 223.91 44.7355 223.765 48.2206Z" fill="#FCC9A7"/>
<path d="M241.953 12.5036C241.004 20.3192 246.551 27.4131 254.346 28.3823C262.162 29.3309 269.256 23.7837 270.225 15.9681C271.174 8.15242 265.627 1.05853 257.811 0.109931C249.995 -0.85929 242.901 4.68794 241.953 12.5036Z" fill="#4C1827"/>
<path d="M239.108 85.1543C239.108 85.1543 237.396 90.4953 213.516 95.4651L224.611 80.3701L239.108 85.1543Z" fill="#FCC9A7"/>
<path d="M229.416 386.499L261.421 397.449H197.453L229.416 386.499Z" fill="#2A272D"/>
<path d="M227.005 320.901L244.513 341.956L231.934 346.741L214.364 324.448L227.005 320.901Z" fill="#FCC9A7"/>
<path d="M243.912 339.09C243.293 338.368 242.262 338.409 241.85 339.214C241.066 340.781 239.417 342.967 236.055 343.915C232.57 344.905 228.755 341.853 227.724 340.637C227.188 339.997 226.301 339.894 225.806 340.472L204.38 355.505C203.39 356.618 202.895 358.165 202.978 359.794C203.06 361.32 204.545 362.413 205.803 361.877L248.201 351.154C249.562 350.556 250.099 348.782 249.336 347.256L244.923 340.368C244.861 340.245 244.778 340.121 244.696 340.018L243.912 339.09Z" fill="#1F252A"/>
<path d="M254.098 185.933C254.098 185.933 267.213 215.792 220.608 231.692L188.397 261.614L238.26 328.387L215.968 336.45L155.423 272.028C150.948 266.811 150.762 258.809 154.989 253.365L209.245 185.912H254.098V185.933Z" fill="#383635"/>
<path d="M0.492981 159.557H159.714V168.425H0.492981V159.557Z" fill="#D71532"/>
<path d="M120.549 397.491V168.425" stroke="#2A272D" stroke-width="2.2811" stroke-miterlimit="10"/>
<path d="M40.9301 397.491V168.425" stroke="#2A272D" stroke-width="2.2811" stroke-miterlimit="10"/>
<path d="M59.7414 154.732H125.978V159.021H59.7414V154.732Z" fill="#2A272D"/>
<path d="M59.7435 159.042L38.2968 96.4344L42.7923 95.3621L63.806 155.495L59.7435 159.042Z" fill="#2A272D"/>
<path d="M209.822 169.414L241.807 120.788" stroke="#FF1135" stroke-width="0.7847" stroke-miterlimit="10" stroke-linecap="round" stroke-linejoin="round"/>
<path d="M207.889 131.264L220.097 111.962" stroke="#FF1135" stroke-width="0.7847" stroke-miterlimit="10" stroke-linecap="round" stroke-linejoin="round"/>
</g>
<defs>
<clipPath id="clip0">
<rect width="272.208" height="398" fill="white" transform="matrix(-1 0 0 1 272.208 0)"/>
</clipPath>
</defs>
</svg>
