<svg width="497" height="373" viewBox="0 0 497 373" fill="none" xmlns="http://www.w3.org/2000/svg">
<path fill-rule="evenodd" clip-rule="evenodd" d="M180.608 94.4501C180.265 100.051 179.922 105.651 179.58 111.252C181.783 110.617 195.796 106.491 194.931 110.674C194.31 113.675 190.37 116.92 188.363 119.009C186.515 120.933 184.613 122.806 182.662 124.624C186.247 123.251 189.863 121.95 193.504 120.733C196.259 119.813 199.035 118.914 201.858 118.224C202.906 117.968 205.736 116.922 206.726 117.635C209.327 119.509 195.212 133.308 193.278 135.253C196.012 133.981 198.812 132.825 201.659 131.833C203.715 131.117 210.066 128.38 211.886 130.718C213.833 133.218 209.009 138.959 207.671 140.779C205.754 143.388 203.677 145.89 201.497 148.283C210.556 156.425 221.202 163.672 232.531 168.176C240.838 171.479 248.998 172.32 257.764 170.508C266.769 168.646 275.405 165.074 283.615 160.991C288.437 158.593 293.195 155.998 297.727 153.083C295.859 150.809 294.044 148.487 292.282 146.129C289.766 142.763 286.674 139.086 285.24 135.079C283.836 131.158 289.103 131.923 291.629 132.136C295.287 132.445 298.936 133.099 302.522 133.882C299.987 132.117 297.497 130.282 295.058 128.388C291.879 125.919 287.639 123.127 285.558 119.575C283.728 116.451 287.744 117.24 289.601 117.649C294.028 118.625 298.336 120.288 302.559 121.91C305.651 123.098 308.725 124.343 311.768 125.653C309.879 124.009 308.053 122.287 306.299 120.502C303.939 118.102 300.759 115.171 299.701 111.866C297.548 105.136 312.034 110.213 314.508 111.252C314.051 104.28 313.594 97.3078 313.138 90.3359C293.956 95.4433 274.774 100.552 255.591 105.66C253.518 106.212 250.924 107.414 248.762 107.478C246.804 107.537 244.439 106.654 242.529 106.289L207.817 99.6527C198.747 97.9183 189.677 96.1845 180.608 94.4501Z" fill="#E60023"/>
<path fill-rule="evenodd" clip-rule="evenodd" d="M386.775 334.25C384.704 335.436 382.278 336.352 379.977 336.966C378.626 337.327 376.393 338.442 375.206 337.42C374.637 336.93 374.506 335.816 374.17 335.17C373.638 334.148 372.881 333.265 372.172 332.362C370.455 330.173 368.668 328.061 366.798 326.001C365.911 325.025 364.293 322.747 362.731 322.897C360.785 323.084 360.832 325.779 361.319 327.156C362.873 331.541 367.573 335.363 370.644 338.667C369.863 339.869 365.576 339.726 364.385 339.444C362.567 339.015 362.383 337.72 361.553 336.238C359.613 332.776 355.676 330.838 352.44 328.803C351.261 328.06 348.753 326.003 347.216 326.521C345.759 327.011 345.822 328.874 346.286 330.09C346.987 331.928 348.981 333.203 350.456 334.365C352.422 335.914 354.221 337.599 355.859 339.495C353.497 339.687 351.144 340.021 348.788 340.215C345.938 340.45 343.563 338.885 340.94 337.999C338.503 337.174 336.074 336.478 333.677 335.528C330.986 334.461 328.168 334.09 325.453 333.155C314.8 329.483 304.362 324.865 294.096 320.211C289.205 317.993 284.414 315.774 279.317 314.038C275.602 312.773 269.766 310.251 268.877 305.824C268.409 303.484 270.117 300.968 270.368 298.631C270.664 295.881 270.431 292.856 269.594 290.218C268.856 287.894 267.634 285.741 266.67 283.51C265.547 280.909 266.553 280.952 268.733 280.656C271.344 280.302 274.39 278.832 276.843 277.874C279.669 276.77 282.471 275.228 285.06 273.643C287.401 272.209 289.438 270.36 291.302 268.353C293.198 266.311 294.425 263.892 296.259 261.799C303.024 270.125 309.454 278.578 316.643 286.544C320.036 290.304 323.726 293.413 327.907 296.272C329.653 297.466 331.385 298.83 333.287 299.774C335.666 300.955 338.325 301.688 340.77 302.766C350.144 306.899 359.09 311.418 367.835 316.751C372.066 319.33 375.617 322.288 379.342 325.524C380.502 326.532 390 332.403 386.775 334.25ZM276.81 266.042C275.295 266.728 273.851 267.62 272.235 268.061C272.693 265.271 275.295 261.064 278.63 261.526C279.905 261.703 280.866 262.693 280.306 264.059C279.797 265.299 277.889 265.553 276.81 266.042ZM171.366 190.377C169.649 191.326 168.049 191.878 167.041 189.841C167.787 189.692 171.176 189.24 171.366 190.377ZM168.507 184.619C167.179 184.216 168.241 183.793 168.698 183.307C169.053 182.929 170.231 181.602 170.643 181.383C172.464 180.418 173.871 184.008 174.742 185.174C172.681 184.99 170.513 185.228 168.507 184.619ZM182.697 197.051C180.181 197.478 180.46 194.329 180.536 192.733C181.066 193.381 184.658 196.719 182.697 197.051ZM191.033 191.612C187.966 192.129 185.94 186.827 186.49 184.508C186.973 182.465 189.35 181.324 191.243 181.023C193.076 180.731 195.63 181.129 196.174 183.246C196.656 185.116 193.077 191.266 191.033 191.612ZM263.629 271.653C261.425 272.33 259.266 272.416 257.05 273.081C254.537 273.836 252.211 273.769 249.692 274.283C248.668 274.491 245.904 275.985 244.905 275.651C243.915 275.321 242.482 272.247 241.913 271.447C246.369 269.594 250.17 267.201 253.107 263.296C255.442 260.19 257.946 255.538 256.477 251.53C254.82 247.011 249.109 246.03 245.301 247.918C243.499 248.81 241.713 249.92 240.228 251.28C238.529 252.835 237.862 254.533 236.761 256.451C235.649 258.391 234.868 257.312 233.756 255.664C232.806 254.256 232.93 252.835 231.743 251.445C231.137 250.737 230.199 250.052 229.883 249.137C229.682 248.556 230.105 247.527 229.725 247.07C229.19 246.428 228.54 247.182 228.092 246.609C227.767 246.193 227.873 245.244 227.537 244.722C227.245 244.426 226.922 244.174 226.563 243.963C226.128 243.749 226.049 243.48 226.325 243.157C225.979 242.516 226.312 242.3 225.572 241.521C224.418 240.306 223.366 239.142 222.544 237.709C222.169 237.053 222.206 236.08 221.739 235.512C221.099 234.732 220.033 234.849 219.482 233.884C218.992 233.024 219.32 231.52 218.512 230.739C218.085 230.617 217.659 230.498 217.232 230.38C216.911 230.068 216.724 229.689 216.671 229.244C216.222 228.552 216.132 227.739 215.565 227.008C214.48 225.611 213.021 224.319 212.062 222.846C211.055 221.296 211.589 221.035 213.339 220.481C214.918 219.981 216.359 219.516 217.822 218.664C224.587 214.725 231 204.276 220.263 201.083C216.278 199.899 213.005 196.713 208.587 197.965C206.672 198.508 204.855 199.664 203.426 201.035C202.439 201.984 201.525 204.52 200.313 205.005C198.134 205.878 199.055 203.697 198.436 202.694C198.141 202.216 196.952 201.665 196.512 201.229C195.995 200.719 195.495 200.074 195.136 199.443C194.469 198.271 194.062 197.618 193.101 196.663C192.738 196.303 190.93 194.442 192.561 194.685C191.9 192.67 192.864 192.367 194.197 190.895C195.762 189.166 197.377 186.764 197.387 184.342C197.405 179.692 191.898 177.608 188.439 180.368C187.735 180.93 183.573 186.352 184.425 182.894C184.884 181.03 189.136 176.161 191.107 177.421C188.898 174.199 183.824 182.022 182.639 183.622C181.631 181.764 181.559 180.31 179.891 178.872C178.532 181.052 179.25 178.669 178.95 178.185C178.303 177.139 178.658 178.335 178.307 177.964C177.871 177.501 177.183 177.136 176.718 176.523C175.921 177.604 176.24 176.441 175.996 176.037C175.425 175.093 175.646 174.546 174.668 173.725C173.957 173.128 172.555 172.201 171.597 172.116C170.493 172.018 170.188 172.441 169.062 172.128C167.631 171.73 165.83 171.118 166.523 173.513C167.026 175.254 169.071 176.243 169.519 178.022C169.97 179.812 168.201 181.616 167.343 183.084C166.241 184.967 165.339 184.814 163.343 185.238C162.067 185.51 160.364 186.09 161.458 187.639C162.239 188.746 164.071 188.513 165.103 189.168C166.549 190.087 166.529 192.353 168.376 192.748C170.409 193.182 171.574 190.916 173.289 190.369C174.508 189.98 178.285 190.023 179.245 190.939C180.552 192.187 179.422 194.572 179.751 196.123C180.241 198.422 181.796 198.563 183.762 198.637C186.182 198.727 187.033 201.052 188.335 202.897C191.384 207.218 194.034 211.824 197.157 216.087C198.54 217.975 200.562 219.655 201.694 221.703C203.092 224.233 201.152 225.693 199.477 227.509C197.288 229.882 195.654 232.582 193.756 235.176C192.07 237.481 189.973 236.907 187.278 236.907C187.879 235.668 188.601 234.895 190.079 235.045C188.534 233.157 187.298 235.317 186.296 236.513C184.846 238.243 182.955 238.661 181.092 239.799C180.433 240.201 176.844 242.81 177.935 243.701C178.058 243.802 184 239.89 184.677 239.532C184.677 240.975 184.361 242.476 184.564 243.911C184.712 244.964 185.451 246.062 185.294 247.158C184.995 249.224 182.326 250.852 181.181 252.462C180.318 253.673 180.526 254.629 180.088 255.93C179.687 257.116 179.897 256.757 178.9 257.124C176.869 257.871 173.451 257.468 171.612 256.406C170.471 255.748 169.595 254.706 168.668 253.789C167.969 253.097 166.213 251.915 166.018 250.947C165.685 249.28 168.992 246.184 169.646 244.465C171.495 239.613 168.325 235.841 163.393 235.566C164.913 234.393 166.797 235.276 168.4 235.724C165.661 231.926 160.982 235.052 158.659 237.633C157.071 233.617 156.306 229.381 155.336 225.193C154.676 222.341 152.161 217.252 153.283 214.316C153.825 212.897 155.356 212.105 156.414 211.121C157.617 210.003 158.648 208.666 159.527 207.281C161.599 204.02 162.796 199.904 159.943 196.69C160.81 196.547 161.677 196.405 162.544 196.262C161.134 194.936 158.909 195.582 157.079 195.189C155.918 194.94 152.577 195.101 151.802 194.444C150.87 193.653 151.467 190.015 151.501 188.939C151.577 186.423 151.787 184.004 152.065 181.502C152.328 179.14 152.275 176.587 152.763 174.266C153.159 172.383 154.425 171.809 155.885 170.699C159.376 168.045 162.221 164.816 161.028 160.242C161.451 160.175 161.873 160.108 162.295 160.041C160.929 159.053 159.162 159.412 157.643 158.89C159.038 154.961 162.123 148.053 167.133 147.681C167.306 149.438 167.188 151.527 168.372 152.981C169.72 154.636 172.087 154.803 173.913 153.928C175.571 153.132 177.126 151.447 177.89 149.782C178.407 148.655 178.314 146.749 179.221 145.856C180.437 144.657 188.825 145.38 188.568 147.402C188.416 148.591 186.174 150.59 185.547 151.644C184.4 153.572 183.481 155.658 183.06 157.874C182.421 161.237 182.791 165.678 186.205 167.446C190.087 169.458 194.818 166.9 198.002 164.691C199.75 163.477 201.444 162.138 203.041 160.732C203.891 159.984 204.746 159.213 205.496 158.362C206.05 157.734 206.492 156.721 207.173 156.25C208.783 155.139 210.361 157.024 211.723 157.977C213.942 159.528 216.15 161.001 218.532 162.293C223.366 164.913 227.785 168.383 232.058 171.829C236.356 175.295 240.789 178.861 244.271 183.18C242.162 184.478 242.538 184.815 241.6 187.131C240.934 188.774 240.017 190.173 239.911 191.999C239.728 195.15 241.749 197.835 244.818 198.533C246.534 198.923 248.168 198.611 249.758 197.908C250.994 197.363 252.225 196.02 253.516 195.686C255.916 195.067 257.836 199.603 259.181 201.201C265.154 208.297 271.469 215.113 277.094 222.499C277.717 223.317 279.567 224.915 279.718 225.998C279.934 227.554 277.489 229.036 276.475 229.928C275.942 230.395 270.294 235.712 272.19 236.557C272.731 236.798 274.313 233.536 274.709 233.257C276.19 232.212 275.07 234.259 274.982 235.294C274.761 237.867 276.527 239.268 279.008 238.942C281.657 238.594 284.014 236.502 285.653 234.526C287.707 236.906 290.917 240.505 291.511 243.685C291.89 245.716 290.134 250.687 293.413 251.102C293.913 251.165 295.725 249.82 296.062 250.584C296.344 251.221 294.386 252.31 294.104 252.521C292.897 253.422 292.168 254.388 291.194 255.48C290.05 256.761 288.488 257.841 287.201 259.069C285.845 260.362 283.164 263.876 281.375 262.179C280.476 261.325 280.713 260.21 279.273 259.709C277.961 259.253 276.3 259.831 275.082 260.337C273.71 260.906 269.191 262.983 268.69 264.693C267.998 267.051 271.733 264.216 272.397 263.802C271.64 265.725 271.221 268.51 269.293 269.632C267.691 270.564 265.386 271.112 263.629 271.653ZM238.017 257.105C239.3 252.981 246.861 245.628 251.641 247.927C246.071 249.095 241.651 252.91 238.017 257.105ZM240.845 268.915C238.981 267.876 239.082 264.857 238.431 263.09C238.058 262.077 237.311 261.336 237.531 260.212C237.787 258.893 239.468 257.428 240.363 256.477C243.178 253.484 248.132 249.394 252.663 250.08C258.431 250.954 254.521 258.703 252.557 261.37C250.883 263.645 244.433 270.916 240.845 268.915ZM227.39 263.871C221.153 263.455 214.937 262.896 208.785 261.751C206.603 261.345 204.776 261.404 206.024 258.895C206.436 258.067 208.921 252.876 209.482 253.025C209.814 253.113 209.738 256.681 209.836 257.09C210.277 258.927 211.513 260.638 213.598 260.521C217.01 260.331 219.209 255.917 221.005 253.548C222.444 255.484 223.485 257.635 224.932 259.538C225.623 260.449 228.03 262.566 227.39 263.871ZM190.823 239.371C189.776 241.774 187.672 244.059 186.208 246.236C185.381 244.483 184.799 240.459 186.761 239.163C187.504 238.673 191.484 237.852 190.823 239.371ZM212.455 246.526C212.743 245.601 213.062 244.684 213.418 243.783C214.028 245.705 214.34 245.762 212.455 246.526ZM217.794 248.495C218.551 249.779 219.813 251.042 219.615 252.654C219.465 253.876 218.362 255.129 217.573 255.98C216.269 257.388 213.379 260.093 211.489 258.222C209.91 256.659 210.46 252.363 211.194 250.605C212.243 248.093 215.99 245.436 217.794 248.495ZM214.09 245.863C214.524 245.691 213.612 242.888 214.458 242.609C215.196 244.293 215.892 244.748 214.09 245.863ZM202.172 208.144C201.891 207.11 201.246 207.153 201.478 205.875C201.631 205.037 202.295 204.142 202.8 203.478C203.805 202.154 205.131 201.062 206.565 200.236C209.592 198.493 213.748 197.769 216.459 200.498C213.925 200.898 206.158 203.401 206.108 206.869C208.926 206.326 211.142 203.494 213.967 202.602C216.287 201.869 218.802 201.92 221.109 202.694C227.425 204.81 224.799 210.273 221.234 213.821C219.118 215.928 216.58 217.501 213.807 218.586C212.523 219.088 211.735 219.144 210.473 218.891C210.237 218.844 209.961 218.406 209.677 218.311C208.973 218.078 209.177 218.869 208.597 218.513C208.091 218.204 207.012 216.205 206.668 215.633C206.12 214.722 205.864 213.837 205.192 213.005C204.518 212.173 204.191 211.059 203.568 210.306C203.269 209.944 202.449 209.958 202.229 209.605C201.899 209.074 202.32 208.687 202.172 208.144ZM192.472 248.884C193.908 246.388 196.364 244.269 198.264 242.088C198.38 245.673 195.811 248.128 192.472 248.884ZM194.412 250.036C197.376 248.992 199.01 246.495 199.312 243.467C199.696 239.632 202.102 237.619 203.551 234.174C204.107 232.853 204.754 228.508 206.908 229.751C207.646 230.178 208.085 231.783 208.47 232.507C209.401 234.26 210.46 235.961 211.448 237.682C212.252 239.084 213.458 240.494 213.103 242.181C212.793 243.652 211.798 245.22 211.214 246.608C209.837 249.885 208.028 252.903 206.517 256.108C205.907 257.401 205.186 260.462 203.324 260.447C201.85 260.434 202.015 258.822 201.045 258.269C199.82 257.572 198.428 258.899 197.422 259.45C198.58 257.492 200.605 256.384 202.882 256.752C200.156 254.036 198.314 257.701 195.975 258.517C193.758 259.291 189.826 255.643 187.96 254.609C188.674 253.399 189.319 251.92 190.547 251.124C191.711 250.368 193.14 250.484 194.412 250.036ZM170.31 274.861C170.635 273.296 171.552 272.372 172.134 270.951C172.808 272.674 171.229 273.69 170.31 274.861ZM217.41 284.459C217.251 289.726 216.821 294.979 216.665 300.247C216.594 302.677 216.164 304.995 215.879 307.397C215.637 309.428 215.76 311.422 214.483 313.158C212.468 315.893 208.552 316.679 205.512 317.693C203.279 318.437 201.021 319.112 198.816 319.939C196.832 320.683 195.233 321.81 193.347 322.694C191.659 323.486 189.837 323.954 188.158 324.797C186.42 325.67 185.047 326.732 183.262 327.509C181.126 328.438 179.366 330.091 177.465 331.403C175.793 332.559 174.023 333.451 172.584 334.903C171.235 336.267 169.527 336.865 167.998 338.075C166.381 339.356 164.689 340.188 162.903 341.192C159.244 343.25 154.307 346.764 149.904 344.765C151.163 343.155 153.741 341.608 153.937 339.391C154.192 336.501 151.679 337.565 150.224 338.488C148.02 339.885 146.801 341.571 145.123 343.434C143.162 345.611 140.684 344.146 138.284 343.534C139.925 342.056 141.553 340.564 143.191 339.083C144.574 337.833 146.69 336.481 147.532 334.753C148.134 333.517 148.104 331.823 146.652 331.182C145.027 330.464 143.189 331.977 141.986 332.878C138.791 335.27 136.687 338.303 134.589 341.632C133.474 343.402 132.96 343.266 130.907 342.912C128.731 342.537 126.556 342.138 124.363 341.875C127.268 338.889 130.515 335.654 132.81 332.16C133.553 331.028 134.523 328.045 132.258 327.77C131.324 327.657 129.466 329.567 128.746 330.082C125.6 332.332 122.575 335.171 120.489 338.457C119.801 339.541 119.585 340.748 118.252 340.837C116.509 340.955 113.27 339.291 111.589 338.777C114.802 334.723 117.993 330.641 121.747 327.066C125.196 323.781 128.637 321.395 132.671 318.876C136.995 316.175 141.022 313.067 144.991 309.876C148.791 306.822 152.761 303.941 156.258 300.532C163.245 293.72 169.467 285.887 174.62 277.604C175.826 275.666 176.961 273.678 177.942 271.615C178.864 269.678 179.288 267.362 180.532 265.601C180.962 264.992 181.568 264.54 181.951 263.905C182.312 263.307 182.189 262.584 182.74 262.055C184.014 260.831 186.334 261.569 187.525 262.427C189.44 263.806 190.989 265.481 193.094 266.636C195.211 267.797 197.501 268.642 199.845 269.212C205.324 270.545 210.756 271.639 216.337 272.449C215.763 274.58 217.173 274.916 217.641 276.834C218.208 279.161 217.481 282.088 217.41 284.459ZM164.655 248.915C163.413 247.069 162.304 245.138 161.083 243.279C160.34 242.146 159.418 240.931 160.054 239.546C161.124 237.212 164.901 236.796 166.95 237.814C171.609 240.127 167.281 246.742 164.655 248.915ZM152.324 206.677C151.895 203.067 153.274 200.506 156.538 198.614C158.863 197.264 160.736 199.108 160.418 201.567C159.935 205.314 155.935 209.481 152.881 211.436C152.682 209.851 152.513 208.263 152.324 206.677ZM151.826 196.349C152.789 195.584 155.367 196.56 156.482 196.626C154.948 197.968 153.414 199.309 151.88 200.65C151.78 199.729 150.938 197.055 151.826 196.349ZM157.002 161.488C164.764 160.478 155.829 168.814 153.579 170.12C153.945 168.346 154.845 161.769 157.002 161.488ZM177.665 146.895C176.623 151.167 168.521 155.827 168.436 148.83C168.405 146.222 169.868 146.434 172.005 146.183C173.223 146.041 178.261 144.453 177.665 146.895ZM149.679 153.511C148.769 155.9 148.04 158.351 147.148 160.743C146.753 161.802 146.288 162.529 145.553 163.369C144.937 164.07 144.204 164.248 144.228 165.356C145 165.207 145.604 164.747 146.227 164.304C146.076 166.502 145.299 168.868 144.923 171.06C144.473 173.688 144.097 176.317 143.958 178.982C143.656 184.777 143.654 190.55 143.781 196.349C143.846 199.303 143.875 202.26 144.034 205.211C144.114 206.679 144.204 208.153 144.385 209.612C144.459 210.201 144.886 211.456 144.622 212.008C143.585 214.175 138.993 208.222 136.999 209.096C137.286 207.446 136.624 207.807 135.519 206.996C134.984 206.603 134.635 205.934 134.077 205.584C133.908 205.402 133.722 205.24 133.519 205.097C133.289 204.782 133.045 204.816 132.789 205.198C130.542 203.854 129.962 200.989 128.756 199.062C128.135 198.072 127.536 197.917 127.43 196.547C127.338 195.353 127.518 194.137 127.469 192.939C127.414 191.586 127.335 190.095 126.956 188.786C126.517 187.266 125.911 187.39 124.732 186.58C125.095 186.421 125.335 186.154 125.451 185.779C125.075 185.846 123.931 186.313 123.646 185.977C123.087 185.318 124.406 185.23 124.753 184.967C123.274 184.31 123.592 183.77 124.126 182.566C124.277 182.225 124.421 181.716 124.55 181.429C124.83 180.801 124.992 181.199 125.085 180.419C125.173 179.675 124.514 178.213 124.32 177.421C123.995 176.092 123.815 174.944 124.107 173.56C124.344 172.439 124.981 171.424 125.025 170.271C125.038 169.947 124.545 169.84 124.538 169.527C124.529 169.07 124.955 168.87 125.065 168.448C125.348 167.368 125.221 166.225 125.705 165.201C126.14 164.28 127.019 163.089 127.642 162.285C128.073 161.728 129.132 161.101 129.248 160.366C129.324 159.879 128.567 159.935 128.6 159.568C128.646 159.071 129.063 158.911 129.177 158.541C129.492 157.529 129.571 156.555 130.385 155.779C131.41 154.802 131.855 155.211 131.898 153.599C131.919 152.813 131.29 152.692 131.627 151.785C131.81 151.293 132.35 151.003 132.695 150.654C133.72 149.619 134.411 148.7 135.141 147.421C135.786 146.292 136.816 145.635 137.477 144.659C138.338 143.388 137.051 142.757 138.798 142.399C138.55 141.609 138.286 140.971 138.94 140.303C139.352 139.881 140.398 140.139 140.763 139.652C141.181 139.092 140.563 137.766 141.194 137.402C141.706 137.108 142.473 138.017 143.279 137.567C143.893 137.224 144.82 135.329 144.622 134.632C146.209 135.525 145.814 134.91 146.573 133.764C146.744 133.507 147.26 133.45 147.406 133.191C147.699 132.672 147.632 132.143 148.055 131.722C148.759 131.021 149.911 131.201 150.685 130.7C151.325 130.286 151.291 129.839 151.802 129.449C152.238 129.115 152.955 129.051 153.379 128.705C154.21 128.028 154.219 127.313 155.258 126.73C156.489 126.039 157.58 125.451 158.7 124.536C159.43 123.939 160.123 122.882 160.978 122.488C162.159 121.943 163.079 121.905 164.235 121.128C165.07 120.566 165.86 119.64 166.679 119.166C167.298 118.81 167.732 118.886 168.512 118.665C169.915 118.267 170.256 116.944 171.401 116.406C172.187 116.036 173.331 116.374 174.194 116.18C176.879 115.577 179.531 114.276 182.226 113.555C185.514 112.676 188.827 111.906 192.141 111.128C189.095 115.259 185.216 118.986 181.282 122.267C179.991 123.343 172.914 128.253 176.729 130.35C178.26 131.191 181.586 128.473 182.822 127.809C185.312 126.471 187.89 125.4 190.497 124.318C194.713 122.568 200.203 119.456 204.888 119.706C202.036 123.207 198.476 126.018 195.214 129.111C192.217 131.954 187.7 134.62 189.113 139.272C184.903 138.2 181.121 136.933 176.743 137.214C174.782 137.34 172.82 137.104 170.868 137.379C168.746 137.679 166.747 138.39 164.707 139.013C163.093 139.506 161.31 139.545 159.825 140.365C159.108 140.762 158.221 141.329 157.576 141.821C156.717 142.477 156.522 142.911 155.846 143.776C153.439 146.861 151.109 149.753 149.679 153.511ZM136.509 211.898C136.378 211.364 136.259 210.878 136.108 210.268C137.448 211.093 137.448 211.093 136.509 211.898ZM126.382 194.893C126.217 195.122 125.523 195.195 125.321 194.998C125.07 194.753 125.73 193.798 125.836 193.595C126.097 193.795 126.699 194.453 126.382 194.893ZM123.513 188.704C123.69 188.052 123.868 187.401 124.045 186.749C124.263 187.353 125.245 188.021 125.267 188.597C125.281 188.978 123.707 188.788 123.513 188.704ZM124.082 189.599C125.62 190.612 125.781 191.807 125.826 193.555C123.986 192.945 124.25 191.163 124.082 189.599ZM150.823 120.604C150.668 121.024 150.009 122.334 149.526 121.418C149.372 121.124 150.502 120.724 150.823 120.604ZM150.381 119.176C150.761 118.833 151.527 119.259 151.957 118.983C152.259 118.788 152.159 118.591 152.3 118.476C152.329 118.453 152.738 117.623 152.906 117.435C153.203 117.104 153.849 116.898 154.209 116.598C155.216 115.764 155.785 114.665 156.419 113.548C157.174 112.214 157.416 112.06 158.635 111.449C159.475 111.028 160.127 110.513 160.811 109.797C161.599 108.973 161.541 108.383 162.188 107.482C162.508 107.037 162.968 106.982 163.34 106.624C163.787 106.195 164.013 105.594 164.426 105.162C164.605 104.974 165.177 104.975 165.285 104.814C165.423 104.611 165.53 103.8 165.659 103.65C165.905 103.983 166.152 104.317 166.398 104.65C167.37 102.94 168.079 101.527 169.704 100.389C171.411 99.1937 172.884 97.4452 174.647 96.3753C175.044 96.1349 175.852 96.0338 176.154 95.6793C176.666 95.0795 176.223 94.5462 176.597 94.0367C177.02 93.4598 177.842 93.927 178.38 93.6783C179.062 93.3631 179.257 92.4432 180.135 92.5443C177.248 95.962 177.284 101.279 177.131 105.548C177.065 107.387 178.223 108.314 176.514 109.664C175.06 110.812 173.01 110.471 171.292 111.227C169.133 112.176 166.825 112.68 164.623 113.508C162.346 114.363 160.514 115.86 158.323 116.851C156.389 117.724 155.07 118.966 153.302 120.044C152.645 120.444 151.627 121.026 150.843 120.547C150.352 120.247 149.741 119.754 150.381 119.176ZM182.985 90.5209C183.11 90.0357 185.574 88.7594 186.18 88.3432C187.09 87.7171 188.437 86.1892 189.452 86.7963C189.804 85.3859 191.177 83.8166 192.39 83.518C193.736 83.1857 196.044 82.0313 197.368 81.023C197.755 80.7287 197.882 80.2984 198.337 80.0225C199.13 79.5412 199.916 79.804 200.679 79.1483C200.796 79.0483 201.852 77.3032 201.894 77.3202C201.947 77.5072 201.997 77.6966 202.04 77.887C202.841 77.4421 203.555 77.0886 204.054 76.5213C204.167 76.3926 203.433 76.0579 203.665 75.803C203.949 75.4907 204.582 75.8399 204.869 75.5436C203.977 79.9749 204.641 85.6787 209.134 87.9255C203.791 88.5029 198.573 86.8958 193.164 87.8827C190.575 88.3558 187.943 89.1314 185.588 90.3233C184.145 91.0537 182.3 93.6691 180.864 92.399C181.434 91.6385 182.303 91.1659 182.985 90.5209ZM208.908 77.7724C210.907 75.327 213.937 74.3595 216.989 75.2352C220.562 76.2605 219.055 78.7588 218.515 81.533C217.485 80.0201 215.251 78.5198 213.349 78.4742C210.652 78.4101 211.672 80.6583 213.291 81.464C214.763 82.1954 217.288 82.3994 218.341 83.7307C219.367 85.0255 218.974 87.1435 219.139 88.671C218.342 88.552 217.544 88.4335 216.747 88.315C217.416 84.7506 214.471 84.5782 211.724 83.5728C208.949 82.5583 206.635 80.5553 208.908 77.7724ZM217.858 68.9952V72.3032C216.747 71.6694 215.636 71.0356 214.524 70.4017C215.636 69.9331 216.747 69.4639 217.858 68.9952ZM226.789 95.4268C230.498 96.4331 234.183 97.4972 237.749 98.8853C239.044 99.3894 240.463 99.5676 241.732 100.137C242.94 100.678 243.122 100.622 242.692 101.682C241.488 104.651 238.635 104.138 236.136 103.684C232.224 102.973 228.393 101.987 224.53 101.06C220.754 100.154 216.899 99.5599 213.18 98.4239C209.364 97.2592 205.645 96.1558 201.719 95.3864C200.574 95.1621 191.511 94.3301 191.58 93.3825C197.288 92.6404 203.164 93.3714 208.897 93.4486C214.854 93.5287 221.01 93.8595 226.789 95.4268ZM221.753 83.941C221.824 81.8992 221.852 79.8511 222.106 77.8219C223.803 79.9191 225.336 80.5466 227.476 78.581C229.526 76.699 229.983 75.718 232.581 77.4873C234.833 79.0215 236.964 78.9506 239.356 77.6077C240.815 76.7884 243.16 73.4411 244.693 74.1303C245.424 74.4586 245.96 75.7826 246.697 76.2697C247.623 76.8797 249.047 77.3032 250.126 77.5402C252.675 78.0988 254.193 76.4586 255.793 74.7039C258.113 72.1599 258.045 73.6373 260.196 75.4018C262.595 77.3693 264.601 76.4081 266.773 74.7286C268.096 78.6087 268.591 82.8458 268.965 86.9133C269.091 88.2868 269.562 90.2368 268.329 91.2082C267.461 91.893 265.617 91.9197 264.57 92.298C260.83 93.6511 257.237 95.571 254.109 98.0285C252.89 98.9858 251.828 100.158 250.163 99.9401C248.576 99.7323 247.034 98.403 245.757 97.5249C244.372 96.5734 242.97 95.4923 241.352 94.9615C240.404 94.6506 238.885 94.7633 238.056 94.1936C236.513 93.1339 238.328 90.3548 237.944 88.4893C237.653 87.0731 236.839 84.1202 234.89 84.9502C231.989 86.1853 233.677 91.0071 235.272 92.5122C232.009 91.9323 228.396 91.0853 225.248 90.0095C222.817 89.178 221.665 86.4315 221.753 83.941ZM276.484 93.8852C283.183 92.0027 289.452 90.7337 296.423 90.3908C299.509 90.2388 302.497 90.3349 305.549 90.3626C307.305 90.3786 308.644 88.9609 307.241 87.33C305.298 85.0721 299.373 85.9318 296.748 85.8303C289.711 85.5583 283.259 86.3587 276.595 88.6797C277.3 87.3805 278.993 87.212 280.153 86.5403C281.576 85.7156 282.544 84.3572 283.152 82.8497C284.734 78.9293 283.142 75.2347 281.487 71.6529C284.738 72.528 288.101 74.4445 291.369 74.9312C292.055 75.0332 292.494 74.9676 293.1 75.2172C293.473 75.3702 293.59 75.8996 294.051 76.0152C294.274 76.0715 294.809 75.5674 295.061 75.6388C296.057 75.9205 295.269 75.9953 295.899 76.4028C296.398 76.7262 296.358 77.1429 297.274 76.99C297.68 76.9229 298.121 76.294 298.335 76.277C298.608 76.2546 298.545 75.9224 298.962 76.0196C299.721 76.1959 299.654 77.1745 299.907 77.6563C300.177 78.1692 299.793 78.8511 300.613 79.1313C301.225 79.3416 301.379 78.6942 301.899 78.7408C302.215 78.769 302.871 79.225 303.151 79.5024C304.05 80.397 305.282 81.3844 306.491 81.9667C306.372 81.8467 307.062 81.5587 306.896 81.4912C306.786 81.4461 307.509 81.6209 307.498 81.6185C308.197 81.7773 308.566 82.8501 308.918 83.2416C309.568 83.9585 310.576 84.7156 311.486 85.0323C313.059 85.5797 313.011 84.925 313.585 86.7958C314.703 85.0362 315.132 87.9828 316.519 88.3072C317.237 88.4753 317.154 88.1673 317.806 88.5437C318.255 88.8016 318.553 89.5913 318.891 89.9726C319.036 89.4228 319.181 88.8725 319.325 88.3237C320.324 90.2174 322.481 93.2203 324.845 92.6773C324.845 93.1941 324.632 93.8119 325.032 94.2529C325.311 94.5613 325.764 94.2111 325.982 94.3903C326.173 94.5467 326.629 95.1693 326.775 95.2718C327.063 95.4739 327.585 95.6215 327.835 95.8226C328.055 95.9998 328.165 96.8464 328.409 97.1519C328.868 97.7269 329.662 97.841 330.037 98.5307C330.123 97.8508 330.208 97.1703 330.294 96.4904C331.039 97.0664 331.102 97.5137 331.285 98.3559C331.546 99.5555 331.2 99.2743 332.027 99.7808C332.84 100.279 333.264 100.223 334.009 101.087C334.739 101.934 334.745 102.456 335.799 101.573C335.995 102.226 336.058 103.07 336.582 103.571C336.977 103.949 338.613 103.965 338.769 104.858C335.695 102.262 337.718 106.204 338.771 104.864C338.993 106.299 340.042 106.762 341.24 107.784C342.358 108.735 342.541 108.666 342.922 110.266C342.913 110.231 343.484 110.584 343.525 110.655C342.436 110.811 344.124 112.028 344.409 112.251C344.618 112.413 344.889 112.025 345.234 112.288C345.63 112.589 345.952 113.272 346.274 113.685C347.147 114.803 347.792 115.764 348.71 116.672C349.701 117.653 350.183 118.894 351.134 120.04C352.19 121.314 352.761 122.778 353.644 124.16C354.482 125.475 355.597 126.53 356.568 127.734C358.117 129.65 358.644 133.87 361.531 133.981C361.362 134.156 361.598 135.464 361.625 135.705C361.762 136.892 361.671 138.035 362.373 139.111C362.534 137.884 363.175 138.357 363.733 139.001C364.66 140.074 363.846 139.804 363.895 140.89C363.954 142.208 364.103 141.189 364.605 142.339C364.998 143.24 365.213 143.824 365.424 144.824C363.793 144.954 363.046 143.62 362.443 142.328C362.191 141.788 362.104 140.899 361.658 140.477C361.183 140.027 360.531 139.992 360.043 139.49C359.107 138.526 358.701 137.023 357.597 136.084C356.35 135.024 356.074 134.524 355.043 133.257C353.903 131.855 352.329 130.87 351.133 129.515C349.935 128.157 350.032 128.898 348.528 128.407C346.927 127.883 344.34 122.849 342.324 124.788C342.403 123.519 340.505 122.326 339.546 121.867C339.131 121.668 338.648 121.848 338.233 121.55C337.782 121.227 337.75 120.604 337.296 120.217C337.296 120.217 336.6 120.386 336.459 120.314C336.171 120.169 336.169 119.653 335.915 119.483C335.213 119.013 334.375 118.521 333.63 118.12C331.817 117.148 330.216 115.95 328.467 114.779C326.969 113.776 325.155 111.964 323.424 111.435C321.911 110.973 320.961 111.208 319.722 110.283C319.047 109.779 319.246 109.61 318.162 109.297C317.13 108.999 316.55 109.152 316.003 108.057C315.047 106.14 315.65 102.4 315.465 100.25C315.269 97.9698 315.035 95.6322 314.441 93.4146C313.738 90.7934 312.81 89.4233 310 90.0406C304.433 91.265 298.934 92.4301 293.342 93.5049C282.198 95.6472 271.245 99.1427 260.347 102.246C259.517 102.483 254.886 103.544 255.832 101.148C256.268 100.042 259.199 99.6303 260.18 99.283C265.567 97.3753 270.978 95.4316 276.484 93.8852ZM274.612 89.0076C273.798 89.3179 272.985 89.6283 272.171 89.9391V87.6744C272.985 88.1188 273.798 88.5627 274.612 89.0076ZM271.229 77.0327C271.937 77.6111 273.375 76.2192 273.976 75.937C275.003 75.4557 276.311 75.0424 277.458 75.141C279.575 75.3246 281.122 77.4096 280.735 79.5233C280.078 83.0998 274.986 84.7909 272.178 86.1892C272.089 84.9216 271.678 83.398 272.567 82.3018C273.338 81.3499 274.833 81.4188 275.545 80.4062C277.335 77.8617 272.483 77.6311 271.398 79.6544C270.97 78.361 270.542 77.0682 270.114 75.7753C271.147 75.6038 270.693 76.5946 271.229 77.0327ZM276.238 70.0322C275.228 70.6859 274.217 71.3396 273.207 71.9933C272.706 69.7305 274.413 69.4328 276.238 70.0322ZM368.304 148.785C366.981 149.417 366.65 147.908 365.698 147.843C366.822 147.151 366.822 147.151 368.304 148.785ZM373.685 181.735C373.85 183.904 373.721 186.098 374.009 188.259C374.229 189.902 374.895 191.431 374.966 193.093C375.121 196.734 373.892 200.44 371.412 203.109C369.065 205.633 365.708 207.805 362.54 208.866C361.113 209.344 359.623 210.404 358.237 210.795C356.703 211.229 355.246 210.285 353.981 211.977C353.137 204.72 353.754 197.137 353.687 189.835C353.621 182.516 353.699 175.195 352.462 167.955C351.361 161.507 349.188 154.255 345.184 148.98C343.558 146.838 341.556 145.084 339.444 143.441C338.348 142.589 337.252 141.678 336.032 141.006C334.154 139.97 332.554 140.113 330.511 139.818C327.588 139.396 324.871 139.039 321.936 139.862C319.205 140.63 316.196 141.503 313.749 142.836C311.312 144.163 308.482 144.711 305.952 145.9C304.23 146.709 300.655 149.412 298.745 148.925C296.897 148.453 294.161 145.315 292.98 143.908C291.472 142.111 290.224 140.028 288.886 138.094C288.416 137.415 287.458 136.366 287.336 135.495C287.124 133.981 287.73 134.476 289.174 134.645C292.889 135.081 296.382 135.77 299.941 136.94C301.713 137.522 305.177 139.877 306.948 138.466C309.653 136.312 305.543 132.608 304.038 131.364C301.473 129.244 298.491 127.67 295.757 125.786C292.852 123.785 289.012 121.654 287.142 118.572C292.601 120.184 298.054 122.031 303.353 124.11C305.778 125.061 308.175 126.066 310.452 127.33C311.731 128.04 314.316 129.962 315.856 129.041C319.204 127.041 311.514 121.232 310.404 120.045C308.68 118.201 306.99 116.374 305.095 114.7C303.817 113.571 301.809 112.777 301.214 111.111C303.336 111.88 305.052 113.386 307.039 114.408C308.079 114.945 309.028 115.253 310.177 115.417C311.402 115.593 311.548 115.788 312.513 116.275C313.264 116.655 314.036 117.163 314.881 117.421C315.481 117.606 316.532 117.637 317.057 117.979C317.326 118.362 317.603 118.739 317.89 119.11C318.211 119.204 318.526 119.312 318.837 119.436C319.303 119.852 319.58 120.426 320.033 120.854C323.324 123.969 327.726 126.197 331.415 128.806C334.906 131.275 338.61 133.507 341.963 136.201C345.821 139.301 349.825 142.634 353.107 146.351C354.961 148.452 356.486 150.835 358.044 153.158C359.172 154.841 360.812 156.236 361.787 157.971C363.913 161.753 365.677 165.841 367.965 169.562C370.297 173.353 373.335 177.121 373.685 181.735ZM342.324 203.679C342.96 201.054 346.546 197.99 348.839 196.832C347.684 199.692 344.605 201.642 342.324 203.679ZM348.238 212.835C346.283 216.894 337.687 217.358 338.853 211.351C339.424 208.408 341.85 206.603 343.932 204.676C344.895 203.787 347.252 200.603 348.742 201.115C348.672 203.404 348.538 205.704 348.543 207.993C348.545 209.521 348.93 211.398 348.238 212.835ZM345.754 166.052C346.547 167.834 347.337 169.319 345.865 170.914C345.201 171.634 343.038 173.208 342.059 172.859C338.917 171.737 344.907 166.854 345.754 166.052ZM326.748 150.19C327.505 150.149 328.239 150.262 328.987 150.215C329.732 150.169 329.811 150.037 330.502 150.131C330.574 150.237 330.647 150.343 330.72 150.45C330.814 151.161 331.188 151.238 331.84 150.682C332.746 150.883 333.336 151.018 334.203 151.508C331.863 153.197 329.015 155.16 326.146 155.726C321.612 156.622 322.865 150.404 326.748 150.19ZM257.24 188.157C256.77 189.103 255.418 186.738 255.083 186.298C255.707 186.296 257.716 187.202 257.24 188.157ZM293.671 163.244C297.193 161.187 301.377 159.381 305.16 157.85C305.826 161.057 302.581 165.198 300.583 167.392C298.967 169.168 297.019 171.008 294.828 172.03C292.459 173.134 289.87 172.649 289.985 169.55C290.027 168.418 290.285 166.595 290.745 165.56C291.34 164.226 292.463 163.949 293.671 163.244ZM246.052 104.9C246.577 104.869 252.272 104.133 252.242 104.842C252.152 106.973 246.624 105.3 246.052 104.9ZM205.777 146.055C208.785 142.341 213.642 138.332 213.712 133.141C213.817 125.502 205.346 129.313 201.087 129.631C203.339 127.417 214.656 118.127 207.962 114.828C206.038 113.88 203.303 114.806 201.372 115.303C197.947 116.185 194.762 117.712 191.396 118.774C193.801 116.212 197.956 113.301 197.82 109.422C197.654 104.7 193.78 105.842 190.431 106.534C189.143 106.801 183.393 109.09 182.313 107.536C181.918 106.966 182.558 106.243 182.693 105.736C182.933 104.84 182.859 104.526 182.867 103.61C182.883 101.762 184.11 99.3889 183.11 97.6701C182.881 98.0606 182.685 98.4671 182.522 98.8891C182.192 97.8891 182.414 96.8279 182.084 95.8279C190.446 97.9678 198.952 99.1393 207.367 100.966C211.627 101.891 215.636 103.483 219.954 104.2C224.309 104.922 228.588 106.028 232.951 106.717C236.932 107.345 240.746 108.391 244.688 109.194C248.531 109.976 252.472 108.262 256.223 107.393C264.624 105.449 273.022 103.457 281.434 101.571C291.141 99.3933 301.239 97.5312 310.53 93.8993C310.71 98.74 311.097 103.572 311.688 108.379C307.585 106.438 301.496 103.907 297.347 107.38C295.687 108.77 295.175 111.169 295.831 113.21C296.546 115.431 298.733 116.463 300.177 118.135C295.784 117.008 284.45 109.062 282.433 117.094C281.008 122.766 287.959 126.43 291.357 129.623C287.982 128.962 283.463 126.262 281.481 130.601C279.769 134.353 281.831 138.434 283.944 141.528C285.089 143.205 286.377 144.782 287.594 146.406C288.238 147.265 288.866 148.137 289.542 148.971C290.221 149.807 291.5 150.683 291.976 151.583C292.933 153.398 291.001 153.508 289.5 154.164C287.624 154.983 286.014 156.358 284.299 157.454C280.372 159.963 276.94 162.293 272.299 163.095C267.521 163.92 262.921 164.782 258.206 165.933C253.506 167.081 249.669 168.184 244.865 166.7C242.674 166.024 240.89 165.423 238.567 165.55C236.126 165.684 234.699 165.557 232.693 164.045C224.06 157.538 214.688 152.198 205.777 146.055ZM190.212 139.523C193.548 137.847 196.908 136.164 200.355 134.724C203.207 133.532 207.54 132.143 210.663 132.666C209.783 134.929 208.176 136.786 206.453 138.452C204.929 139.926 203.024 142.151 201.181 143.179C199.506 144.113 197.557 142.634 195.906 142.014C194.091 141.334 191.593 141.017 190.212 139.523ZM191.05 147.975C192.713 147.283 196.287 149.604 197.799 150.207C200.771 151.393 203.76 152.631 206.379 154.502C203.181 158.201 199.559 161.583 195.255 163.958C192.423 165.522 187.65 167.314 184.979 164.476C181.623 160.91 185.657 153.643 188.033 150.587C188.112 151.11 188.191 151.632 188.27 152.155C189.028 150.941 189.606 148.575 191.05 147.975ZM252.096 179.631C250.021 180.068 249.316 179.673 247.947 178.081C247.021 177.005 246.112 175.888 245.068 174.92C244.002 173.933 241.372 171.552 244.723 172.923C247.779 174.172 250.396 174.797 253.757 174.307C257.601 173.748 261.184 172.122 264.974 171.299C262.896 173.118 260.834 174.955 258.753 176.769C256.553 178.685 254.89 179.042 252.096 179.631ZM252.57 194.261C248.024 197.685 238.872 197.314 241.952 189.782C242.42 188.637 243.075 187.561 243.832 186.586C244.085 186.26 244.534 185.586 244.894 185.368C245.9 184.757 245.621 184.684 246.588 185.701C247.422 186.579 253.94 193.751 252.57 194.261ZM251.222 181.173C251.639 181.037 253.393 180.019 253.793 180.582C254.198 181.153 250.758 183.125 251.222 181.173ZM284.318 233.384C283.296 235.832 275.115 239.375 276.639 234.442C277.314 232.256 277.951 230.601 280.497 230.435C281.967 230.34 285.218 231.229 284.318 233.384ZM298.993 200.217C300.339 198.255 304.787 195.602 306.685 198.528C307.6 199.938 305.38 200.66 304.038 200.298C303.317 200.102 302.727 199.672 301.943 199.639C300.936 199.598 299.951 200.389 298.993 200.217ZM302.563 202.165C301.647 203.093 296.124 207.743 295.23 207.026C297.033 204.446 299.104 201.565 302.563 202.165ZM293.543 249.226C291.625 249.335 292.583 246.443 292.768 245.286C293.232 246.092 295.673 249.106 293.543 249.226ZM298.415 244.042C297.795 242.938 296.124 241.294 296.501 239.872C296.791 238.785 299.4 237.325 300.492 237.948C301.943 238.776 299.84 244.226 298.415 244.042ZM343.923 232.458C343.103 235.287 342.252 234.557 339.68 235.105C337.099 235.655 335.315 237.848 333.043 239.024C333.832 237.354 334.322 235.32 335.643 233.965C335.949 233.652 337.821 233.034 336.754 232.309C335.822 231.676 334.48 233.732 334.08 234.292C332.112 237.049 330.736 240.416 329.599 243.589C329.04 245.147 328.593 246.735 328.328 248.371C328.092 249.829 328.347 251.355 328.106 252.775C327.72 255.062 324.615 255.074 322.748 255.664C321.057 256.197 319.374 256.776 317.62 257.064C316.099 257.314 314.52 256.859 313.046 257.159C311.45 257.484 310.733 258.431 308.918 258.217C307.44 258.043 306.055 257.362 304.556 257.294C303.153 257.231 301.754 257.716 300.359 257.321C298.951 256.922 299.019 256.767 299.34 255.384C299.54 255.757 299.74 256.13 299.94 256.503C300.502 256.063 300.89 254.721 301.233 254.091C301.767 253.114 302.201 252.777 302.004 251.561C301.712 249.765 300.094 248.488 299.727 246.78C299.344 244.998 300.661 243.54 301.44 242.053C302.504 240.016 302.49 238.506 301.598 236.4C302.27 236.577 302.942 236.755 303.615 236.933C302.693 234.931 299.568 235.743 298 236.336C297.213 236.633 295.964 237.805 295.117 237.775C293.952 237.734 293.345 236.202 292.844 235.358C291.395 232.917 289.742 230.506 288.028 228.239C287.557 227.615 286.94 227.215 287.102 226.504C287.241 225.901 288.592 225.047 289.03 224.675C290.674 223.285 292.765 222.514 294.309 221.05C296.642 218.838 299.332 217.253 301.717 215.085C304.202 212.827 306.763 210.752 309.352 208.618C311.975 206.456 314.247 203.909 316.851 201.725C317.525 202.948 318.832 207.329 320.327 207.668C322.07 208.063 322.018 205.999 321.931 204.758C321.807 202.988 320.826 201.269 320.716 199.58C320.599 197.774 322.336 196.966 323.646 195.922C325.671 194.307 330.152 190.631 327.743 187.605C325.668 184.999 318.921 189.996 317.062 191.499C315.481 192.775 314.26 193.93 312.48 194.938C311.229 195.645 309.13 198.368 307.646 198.116C305.882 197.818 305.193 195.89 303.035 195.953C300.925 196.015 299.134 197.535 297.826 199.061C294.869 202.511 293.853 207.127 291.159 210.724C289.83 212.496 288.107 213.96 286.666 215.638C285.084 217.479 284.747 219.6 283.187 221.402C278.722 215.45 273.857 209.813 269.148 204.056C266.796 201.181 264.494 198.272 262.193 195.357C261.33 194.264 260.358 193.239 259.568 192.091C258.486 190.519 258.681 189.257 258.256 187.504C258.068 186.727 257.186 185.797 257.422 185.054C257.74 184.057 259.969 183.273 260.773 182.865C264.055 181.198 267.033 179.114 270.094 177.076C275.762 173.305 281.496 169.768 287.524 166.546C287.42 167.934 286.518 169.373 287.124 170.765C287.406 169.964 287.853 166.395 288.922 166.242C288.717 166.271 288.886 170.818 289.051 171.468C289.544 173.405 290.976 174.73 293.024 174.717C296.924 174.692 300.42 170.446 302.586 167.633C304.051 165.729 305.459 163.514 305.975 161.131C306.44 158.991 305.929 157.503 308.152 156.416C312.713 154.186 317.312 152.37 322.19 151.188C321.972 153.291 321.362 155.881 323.273 157.394C325.382 159.065 328.142 157.576 330.127 156.471C332.094 155.377 335.127 152.371 337.438 153.244C339.71 154.103 341.292 156.955 342.564 158.848C343.685 160.518 344.905 161.721 343.607 163.582C342.151 165.667 341.205 167.702 340.039 169.967C339.591 170.837 339.163 171.405 339.48 172.297C339.583 172.587 340.751 174.31 341.068 174.557C343.092 176.133 345.825 173.135 347.27 171.997C347.78 176.898 347.894 181.777 348.099 186.693C348.25 190.294 349.643 193.839 346.69 196.47C343.738 199.102 341.274 201.803 339.475 205.366C338.514 207.269 337.652 209.222 336.612 211.086C335.918 212.332 334.453 214.158 335.349 215.623C336.295 214.725 336.577 213.359 337.365 212.346C337.837 214.448 338.313 216.78 340.535 217.672C343.092 218.696 345.632 216.923 347.897 215.936C347.085 221.556 345.501 227.017 343.923 232.458ZM341.309 238.918C339.555 242.671 337.97 247.195 334.73 249.959C334.018 250.566 330.995 252.934 329.845 252.538C328.868 252.2 329.406 250.226 329.576 249.38C330.439 245.086 331.933 242.383 335.413 239.644C336.853 238.51 338.702 237.06 340.56 236.78C342.559 236.479 341.983 237.476 341.309 238.918ZM390.803 327.994C386.253 321.804 379.823 316.993 373.747 312.342C370.994 310.236 367.961 308.656 365.18 306.549C362.037 304.166 358.844 301.868 355.322 300.073C348.645 296.668 341.362 294.295 335.061 290.27C331.988 288.307 328.627 286.409 325.738 284.205C324.469 283.237 323.348 281.999 322.201 280.889C321.136 279.859 318.848 278.363 318.425 276.855C320.198 276.564 321.206 274.843 322.788 274.667C323.31 274.609 326.576 275.474 326.13 273.888C327.314 273.859 327.452 273.841 328.445 273.582C328.856 273.474 329.344 273.642 329.759 273.495C330.396 273.27 330.828 272.621 331.471 272.373C331.928 272.196 333.623 272.393 333.881 272.173C334.582 271.573 333.837 271.626 333.418 270.876C334.782 270.842 335.719 271.531 337.087 270.798C337.503 270.575 337.856 270.06 338.259 269.793C338.975 269.32 339.234 270.054 339.724 269.071C340.182 270.426 340.17 270.051 341.275 269.653C342.377 269.255 343.172 268.969 344.426 268.869C347.423 268.632 350.43 268.996 353.413 268.783C354.504 268.705 355.436 268.457 356.52 268.6C357.474 268.726 357.187 269.39 357.981 268.495C358.165 268.287 357.569 267.718 357.855 267.419C357.981 267.287 358.391 267.38 358.547 267.312C359.942 266.703 359.948 267.554 360.195 268.662C361.013 268.471 361.848 268.297 362.558 267.817C362.199 267.497 361.599 267.143 361.945 266.557C363.124 267.005 363.896 266.798 363.306 268.094C364.493 268.486 364.714 267.975 365.78 267.862C366.411 267.796 367.291 268.188 367.816 267.684C368.39 267.134 367.485 266.537 368.538 266.064C368.755 266.174 368.914 266.34 369.019 266.561C369.588 266.734 369.486 266.958 368.712 267.234C370.784 268.308 370.297 267.107 371.167 265.836C371.368 265.543 372.268 264.633 372.678 265.073C373.3 265.739 372.03 265.951 372.302 266.614C372.774 267.762 374.42 266.29 374.925 265.709C375.308 265.269 375.464 264.426 375.876 264.098C376.448 263.641 377.271 264.346 377.988 264.22C381.262 263.646 384.353 259.241 381.887 256.293C381.224 255.501 380.663 255.658 379.873 255.158C379.093 254.664 378.655 253.809 378.028 253.103C376.598 251.491 374.847 250.284 372.847 249.512C368.208 247.721 363.21 246.415 358.339 245.454C356.083 245.009 353.681 244.329 351.372 244.333C350.011 244.336 347.962 245.395 346.69 244.888C344.217 243.902 347.848 238.853 348.447 237.223C350.207 232.432 351.535 227.324 352.405 222.295C352.576 221.311 352.51 220.036 352.865 219.098C353.271 218.02 353.359 218.172 354.229 218.085C355.801 217.926 357.521 218.751 359.159 218.466C360.973 218.15 362.935 218.297 364.767 217.735C365.609 217.477 366.39 217.197 366.944 216.485C367.119 216.262 366.924 216.068 367.035 215.912C367.069 215.863 367.695 215.186 367.716 215.148C367.71 214.798 367.74 214.451 367.807 214.107C368.442 214.635 368.129 215.741 369.199 215.767C369.39 214.587 369.392 214.349 370.165 213.686C370.107 213.737 370.748 213.191 370.666 213.249C370.705 213.039 370.782 212.843 370.897 212.661C371.258 212.487 371.641 212.393 372.043 212.383C372.879 211.523 372.532 211.064 372.532 209.905C373.207 210.256 373.881 210.607 374.556 210.958C374.72 207.526 376.807 205.647 378.195 202.866C378.786 201.681 379.389 200.755 379.53 199.325C379.611 198.501 379.399 197.773 379.74 196.996C380.049 196.291 380.742 195.911 381.031 195.143C381.6 193.631 381.176 191.702 381.207 190.132C381.25 187.955 381.467 185.785 381.539 183.609C381.678 179.338 381.249 174.948 380.61 170.726C380.305 168.707 379.794 166.747 379.392 164.749C379.062 163.107 378.273 161.566 377.99 160.039C377.873 159.404 378.054 158.834 377.863 158.132C377.611 157.209 377.189 156.301 376.876 155.395C376.145 153.277 375.421 151.163 374.598 149.079C373.002 145.039 371.135 141.12 369.361 137.158C367.655 133.348 366.241 129.42 364.031 125.862C361.854 122.358 359.51 118.912 357.11 115.558C354.611 112.065 351.451 109.063 349.027 105.538C344.476 98.9183 338.129 93.4636 331.488 88.9595C317.784 79.6646 302.975 70.3843 286.542 67.1973C284.066 66.7174 281.557 66.3842 279.033 66.3221C277.467 66.2832 274.873 67.0409 273.39 66.5105C271.729 65.9165 271.881 64.0501 271.465 62.5858C270.93 60.7038 269.725 59.4706 268.355 58.1399C266.914 56.7397 265.606 55.1034 263.808 54.151C261.986 53.1864 259.837 52.8256 257.818 52.5342C256.016 52.2734 253.323 52.5167 251.677 51.7309C250.177 51.015 250.918 50.2695 252.322 50.8824C252.425 50.2627 252.508 49.8625 252.905 49.3836C253.104 49.1427 254.046 48.8052 254.068 48.5808C254.095 48.3176 253.305 47.5686 253.192 47.2294C252.95 46.4991 253.088 45.4876 253.376 44.8022C254.792 46.0615 255.202 46.6192 256.783 45.4155C257.45 44.9072 257.655 44.6831 258.428 44.4267C258.638 44.357 259.108 44.5721 259.291 44.4514C259.989 43.9911 259.347 44.0996 259.679 43.5556C259.595 43.6928 260.182 42.2468 260.154 42.5491C260.225 41.7789 260.453 42.0156 259.988 41.0693C259.078 39.218 256.76 39.1423 257.942 37.0295C258.406 36.1982 258.815 36.281 258.946 35.0757C259.017 34.4277 258.929 33.6847 258.926 33.0255C258.92 31.6774 259.174 30.7335 257.912 30.0471C256.699 29.387 255.579 30.1112 255.087 28.4739C254.571 26.7558 255.091 24.5532 253.231 23.3767C251.871 22.5172 249.909 23.252 248.407 22.8316C246.902 22.4107 245.518 20.8697 243.991 22.0528C242.905 22.8937 242.33 24.961 240.285 23.8431C239.362 23.3389 238.854 21.646 238.272 20.6966C237.345 19.1835 236.601 18.6369 235.174 20.1107C234.295 21.0197 232.44 23.2324 232.327 24.4907C232.202 25.8796 233.413 26.4601 231.893 27.2817C230.38 28.0994 229.532 27.4998 228.304 29.1593C227.086 30.8057 228.029 31.7152 226.618 33.2905C224.855 35.2594 223.916 36.1094 223.941 38.7622C223.958 40.5817 222.352 42.1534 223.289 43.8796C224.339 45.8142 227.405 46.6187 229.263 47.4061C228.643 48.5533 227.791 49.2889 228.516 50.4696C229.172 51.539 231.026 51.7615 232.176 51.5672C232.949 51.437 232.977 51.5541 233.586 51.0096C233.985 50.6536 233.438 50.2088 234.259 50.0116C235.132 49.8003 236.528 51.5147 237.096 51.9431C235.827 53.59 232.345 53.898 230.502 54.7328C229.379 55.2418 228.347 55.9951 227.203 56.4502C226.166 56.863 224.904 56.7673 223.963 57.406C222.339 58.5095 221.663 61.2429 220.667 62.85C219.541 64.6693 218.448 65.5139 216.286 65.8918C213.589 66.3624 211.417 66.5518 208.901 67.7271C205.829 69.1628 202.801 70.6786 199.784 72.226C194.918 74.7219 190.398 77.2838 185.879 80.3023C181.152 83.4611 176.553 86.7579 171.992 90.0581C167.48 93.3223 163.693 97.3379 159.773 101.285C156.605 104.476 153.825 107.92 150.67 111.11C146.944 114.877 144.204 119.631 140.75 123.627C138.86 125.813 137.051 127.962 135.865 130.537C134.904 132.625 133.233 134.673 132.117 136.863C130.692 139.663 129.342 142.419 127.742 145.126C127.085 146.237 126.304 147.19 125.611 148.251C124.723 149.609 124.776 150.921 124.537 152.487C124.287 152.104 124.038 151.722 123.789 151.341C123.337 152.329 122.79 153.301 122.398 154.313C122.148 154.959 122.188 155.875 121.937 156.44C121.622 157.149 121.238 157.055 120.846 157.645C120.426 158.277 120.29 159.125 119.848 159.802C117.936 162.73 117.2 166.444 116.217 169.785C114.899 174.266 115.106 179.417 115.178 184.038C115.254 188.918 115.521 193.799 116.254 198.628C116.919 203.002 118.339 207.197 120.562 211.031C122.5 214.372 125.171 216.32 128.593 218.031C130.165 218.817 131.623 218.575 133.273 218.7C135.08 218.837 136.312 219.328 138.224 218.897C139.141 218.689 139.575 218.021 140.303 217.798C140.754 217.66 140.998 217.885 141.43 217.833C142.05 217.758 143.338 217.454 144.01 217.527C146.1 217.755 145.749 220.917 145.955 222.531C146.271 225.018 146.503 227.532 146.93 230.003C147.827 235.201 149.765 240.057 150.91 245.164C145.603 245.812 141.049 246.804 136.075 248.814C131.084 250.83 126.038 251.515 120.785 252.517C115.871 253.455 111.145 255.207 107.212 258.382C105.368 259.869 103.453 261.61 104.807 264.06C105.673 265.626 107.233 266.024 108.58 266.935C108.852 266.59 108.065 265.86 107.921 265.658C109.053 265.89 109.019 266.419 109.846 266.879C110.568 267.282 111.16 267.268 111.951 267.552C113.883 268.246 114.832 269.979 116.742 270.465C117.342 270.618 118.128 270.984 118.742 271.088C119.48 271.213 120.033 270.89 120.781 271.027C121.184 271.293 121.621 271.483 122.09 271.597C122.397 271.454 122.701 271.304 123.001 271.144C124.075 271.256 124.739 271.932 125.612 272.488C125.67 271.788 125.586 271.061 126.248 270.604C126.507 271.285 126.089 271.716 126.795 272.184C127.689 272.778 128.863 272.037 129.663 271.661C129.89 273.924 135.125 273.791 136.785 273.758C139.083 273.714 141.379 272.801 143.697 273.311C144.88 273.57 146.142 273.841 147.32 274.178C148.737 274.583 150.451 274.946 151.847 275.457C152.402 275.661 153.081 276.312 153.672 276.268C154.142 276.233 154.268 275.539 154.816 275.559C155.435 275.581 155.644 276.272 156.179 276.48C156.982 276.79 157.72 276.2 158.482 276.498C158.757 276.605 159.128 277.065 159.479 277.215C160.011 277.442 161.065 277.445 161.658 277.554C162.498 277.71 163.25 277.605 163.97 277.657C164.551 277.698 164.538 278.089 164.816 278.115C165.135 278.143 165.689 277.047 166.117 276.886C166.741 276.652 167.872 277.21 168.508 277.308C163.902 283.555 158.349 289.076 152.33 293.91C145.837 299.126 139.189 304.334 132.226 308.908C125.905 313.062 119.785 316.654 114.884 322.517C110.751 327.46 104.173 332.75 105.187 339.916C106.2 347.075 113.969 349.989 120.194 351.355C128.024 353.075 136.084 352.382 143.934 353.349C147.282 353.761 151.002 353.541 154.372 353.19C158.353 352.775 161.764 350.176 165.186 348.296C171.342 344.915 176.604 340.392 182.667 336.905C190.258 332.539 197.77 327.913 206.092 324.989C209.964 323.629 213.949 322.077 217.072 319.279C217.537 318.862 217.884 318.234 218.409 317.891C219.301 317.308 219.541 317.899 220.059 317.722C220.457 317.587 220.844 317.155 221.188 317.026C222.061 316.699 222.451 316.834 223.429 316.834C222.59 316.35 221.822 315.102 222.693 314.085C224.184 312.342 224.441 315.127 225.001 315.772C225.476 315.161 225.294 314.617 225.173 313.923C225.574 314.188 225.976 314.453 226.377 314.719C226.101 313.375 226.364 312.138 227.075 310.968C227.73 309.89 227.892 310.041 228.073 308.546C230.11 310.407 230.508 305.891 230.691 304.245C230.869 302.648 230.693 301.502 231.743 300.106C232.869 298.607 234.582 297.659 236.012 296.495C238.271 294.655 240.756 292.331 243.88 294.095C246.345 295.489 247.688 298.905 250.001 300.659C251.404 301.724 252.886 301.832 253.78 303.483C254.503 304.818 254.738 306.415 255.421 307.785C257.075 311.107 259.456 314.908 262.173 317.455C264.702 319.828 267.948 319.815 270.907 321.286C273.836 322.743 276.879 324.321 279.98 325.376C283.367 326.528 287.018 327.019 290.315 328.415C292.011 329.134 293.528 330.216 295.239 330.903C297.084 331.645 299.028 332.168 300.898 332.847C308.306 335.54 315.556 338.842 323.338 340.334C326.79 340.996 329.986 342.794 333.463 343.173C334.954 343.335 336.17 343.541 337.63 343.914C339.92 344.5 339.435 344.811 340.278 346.721C341.666 349.867 345.055 348.004 347.667 348.083C351.848 348.209 355.966 347.533 360.141 347.5C367.441 347.445 374.471 346.621 381.533 344.223C388.623 341.815 396.695 336.012 390.803 327.994Z" fill="black"/>
<path fill-rule="evenodd" clip-rule="evenodd" d="M306.413 82.2727C306.512 82.3722 306.746 82.4326 306.413 82.2727V82.2727Z" fill="black"/>
<path fill-rule="evenodd" clip-rule="evenodd" d="M177.815 216.222C179.401 214.614 186.147 214.938 186.657 217.815C187.225 221.025 181.197 225.875 178.991 227.234C176.152 228.984 172.687 229.312 173.19 224.919C173.57 221.601 175.557 218.511 177.815 216.222ZM183.386 212.911C183.592 213.801 182.076 213.498 181.658 213.287C181.461 212.883 183.18 212.019 183.386 212.911ZM171.752 218.799C173.098 218.92 174.64 216.76 175.655 216.024C176.104 216.718 173.145 220.533 172.819 221.403C172.006 223.578 171.554 226.326 172.662 228.496C175.902 234.835 184.191 225.782 186.265 222.62C187.716 220.409 188.72 217.666 186.671 215.499C185.941 214.727 184.736 214.512 184.058 213.779C183.166 212.814 183.868 211.568 182.075 211.779C180.837 211.924 179.351 213.041 178.148 213.446C176.698 213.933 175.394 214.438 174.129 215.34C173.843 215.544 170.09 218.649 171.752 218.799Z" fill="black"/>
<path fill-rule="evenodd" clip-rule="evenodd" d="M266.856 220.927C266.01 225.282 261.697 229.751 257.159 229.924C252.639 230.096 251.176 225.358 251.974 221.581C252.654 218.36 255.436 212.764 259.405 213.381C262.526 213.865 267.581 217.193 266.856 220.927ZM263.978 213.647C261.112 211.428 257.153 210.402 253.832 212.162C252.743 212.739 248.396 215.285 249.719 217.009C251.502 215.626 253.042 213.706 255.359 213.246C254.97 215.044 252.744 216.662 251.96 218.412C251.043 220.458 250.541 222.799 250.691 225.046C250.959 229.046 253.636 232.155 257.782 231.605C261.577 231.101 264.895 228.191 266.706 224.918C269.123 220.548 267.761 216.576 263.978 213.647Z" fill="black"/>
<path fill-rule="evenodd" clip-rule="evenodd" d="M237.367 230.828C235.327 233.851 232.215 236.694 228.619 237.628C223.962 238.837 225.27 234.986 226.662 232.222C227.892 229.779 230.003 225.576 233.217 225.598C234.308 225.605 236.34 226.133 237.296 226.717C239.181 227.868 238.441 229.237 237.367 230.828ZM233.021 224.184C233.753 223.368 236.995 219.869 237.43 222.596C238.361 221.516 237.626 220.62 236.434 220.506C234.997 220.368 233.424 221.97 232.387 222.766C230.251 224.404 228.607 226.081 227.192 228.377C225.632 230.909 221.653 236.63 225.135 239.142C228.899 241.856 234.376 236.842 236.733 234.257C238.24 232.602 240.236 230.174 239.663 227.748C238.959 224.769 235.496 224.456 233.021 224.184Z" fill="black"/>
<path fill-rule="evenodd" clip-rule="evenodd" d="M216.962 175.465C214.856 177.869 210.579 181.373 207.053 180.96C203.838 180.583 205.094 176.972 206.231 175.225C207.941 172.598 210.231 170.133 213.539 169.989C214.968 169.927 216.819 169.956 217.925 171.038C219.436 172.517 218.075 174.195 216.962 175.465ZM216.739 168.784C214.272 167.931 213.302 167.607 210.905 168.963C208.979 170.051 207.272 171.591 205.951 173.338C203.973 175.954 201.979 181.838 207.056 182.574C212.626 183.381 225.873 171.945 216.739 168.784Z" fill="black"/>
<path fill-rule="evenodd" clip-rule="evenodd" d="M224.33 183.797C222.727 185.434 220.727 186.77 218.444 187.227C219.41 185.071 221.566 180.359 224.123 179.703C225.301 179.4 226.644 179.797 226.548 181.14C226.477 182.11 224.961 183.15 224.33 183.797ZM226.392 178.097C225.065 177.431 225.484 176.977 223.94 177.499C222.724 177.91 221.19 178.623 220.177 179.445C219.625 179.894 217.904 181.484 218.115 182.293C218.496 183.764 219.779 181.51 220.117 181.077C220.695 181.548 217.738 185.781 217.563 186.478C216.907 189.072 218.942 189.347 220.936 188.498C223.626 187.354 231.59 180.703 226.392 178.097Z" fill="black"/>
<path fill-rule="evenodd" clip-rule="evenodd" d="M265.824 247.903C266.022 246.183 266.304 244.365 267.882 243.399C269.303 242.529 270.775 242.655 270.985 244.44C271.181 246.098 269.557 249.043 268.244 249.947C266.416 251.207 266.063 249.637 265.824 247.903ZM268.173 251.817C271.927 249.618 274.293 239.537 267.373 242.362C263.441 243.968 264.887 253.74 268.173 251.817Z" fill="black"/>
<path fill-rule="evenodd" clip-rule="evenodd" d="M236.11 210.012C236.703 208.798 237.38 208.395 238.58 207.863C237.78 208.62 236.962 209.319 236.11 210.012ZM236.977 207.02C236.126 207.874 234.178 209.175 234.451 210.642C234.7 211.98 235.722 211.903 236.648 211.486C238.591 210.612 239.672 206.785 241.705 206.427C239.451 204.997 238.924 205.063 236.977 207.02Z" fill="black"/>
<path fill-rule="evenodd" clip-rule="evenodd" d="M237.275 131.02C237.383 135.096 237.479 139.171 237.568 143.246C237.6 144.678 237.258 146.72 237.688 148.092C237.878 148.696 239.593 151.316 240.201 151.485C242.331 152.078 241.57 146.737 241.585 145.421C241.637 140.984 241.572 136.541 241.554 132.104C241.543 129.816 242.189 110.641 239.223 110.735C238.713 110.751 237.454 112.943 237.265 113.383C236.669 114.763 236.888 116.809 236.902 118.281C236.942 122.525 237.163 126.776 237.275 131.02Z" fill="black"/>
<path fill-rule="evenodd" clip-rule="evenodd" d="M255.23 142.9C255.397 144.027 255.309 145.906 256.577 146.49C257.68 146.998 258.102 146.394 258.515 145.45C259.463 143.278 259.121 139.957 259.104 137.711C259.069 133.261 258.568 128.829 258.222 124.395C258.069 122.449 258.385 120.496 258.143 118.46C258.036 117.566 257.929 113.972 256.274 114.14C254.778 114.291 254.913 118.057 254.831 119.028C254.153 127.107 254.035 134.836 255.23 142.9Z" fill="black"/>
<path fill-rule="evenodd" clip-rule="evenodd" d="M325.858 235.67C325.224 238.914 314.877 250.212 312.271 243.893C310.725 240.144 314.076 236.063 316.689 233.893C318.306 232.55 320.326 231.231 322.53 231.638C324.401 231.984 326.261 233.609 325.858 235.67ZM320.515 229.85C319.784 230.023 313.675 234.315 313.62 234.259C313.089 233.726 316.942 227.979 317.338 227.476C320.605 223.335 322.773 226.471 324.816 229.726C324.381 227.782 323.184 224.959 321.184 224.137C318.658 223.099 316.689 225.661 315.474 227.503C313.757 230.107 312.81 232.934 311.856 235.872C311.401 237.273 310.883 238.544 310.112 239.807C309.352 241.054 308.021 242.428 308.218 244.005C309.299 243.404 309.873 242.227 310.554 241.257C311.314 241.565 311.053 243.989 311.207 244.606C311.595 246.157 312.654 247.371 314.292 247.638C317.344 248.134 320.639 245.309 322.68 243.389C324.831 241.367 327.145 238.595 327.127 235.482C327.107 232.23 323.911 229.045 320.515 229.85Z" fill="black"/>
<path fill-rule="evenodd" clip-rule="evenodd" d="M328.79 177.715C327.059 180.368 324.02 183.547 320.804 184.163C318.444 184.615 316.887 182.865 317.835 180.502C318.636 178.505 321.365 177.244 323.153 176.365C324.572 175.668 331.187 174.045 328.79 177.715ZM327.516 173.377C323.969 173.243 321.107 175.81 318.462 177.858C319.059 175.505 320.411 172.945 322.314 171.414C324.903 169.329 327.358 170.623 330.084 171.666C329.412 169.542 326.393 168.778 324.469 169.078C322.038 169.458 320.289 171.535 319.059 173.545C317.593 175.942 317.091 178.767 315.365 181.016C314.574 182.045 309.679 185.897 310.788 187.471C312.615 185.529 314.444 183.587 316.273 181.645C316.747 183.94 317.269 186.554 320.198 186.331C322.537 186.152 325.204 184.163 326.914 182.642C329.123 180.678 333.47 173.603 327.516 173.377Z" fill="black"/>
<path fill-rule="evenodd" clip-rule="evenodd" d="M277.822 196.025C276.319 196.716 273.011 197.655 272.171 195.578C271.004 192.693 274.759 187.632 276.547 185.709C277.647 184.527 278.393 183.915 279.926 184.68C281.15 185.292 282.949 187.028 283.418 188.364C284.426 191.231 280.173 194.942 277.822 196.025ZM281.27 182.167C282.494 182.443 282.644 183.998 281.113 183.401C279.967 182.953 279.7 181.813 281.27 182.167ZM282.806 184.357C282.349 182.962 283.279 180.774 281.028 180.674C279.753 180.617 277.417 181.914 276.304 182.442C274.76 183.172 273.308 184.288 272.503 185.859C271.756 187.314 272.289 187.698 273.427 186.49C273.566 186.585 270.853 193.585 270.83 194.287C270.724 197.492 272.991 199.603 276.176 199.035C279.103 198.513 281.741 196.117 283.352 193.7C284.167 192.476 284.836 191.075 284.897 189.577C284.991 187.278 283.459 186.354 282.806 184.357Z" fill="black"/>
<path fill-rule="evenodd" clip-rule="evenodd" d="M301.035 177.968C298.473 176.796 295.611 180.801 296.846 183.181C298.466 186.302 306.37 180.407 301.035 177.968ZM297.98 182.445C297.447 181.496 301.067 180.098 301.639 180.074C301.352 180.598 298.711 183.746 297.98 182.445Z" fill="black"/>
<path fill-rule="evenodd" clip-rule="evenodd" d="M126.651 175.676C126.507 174.662 124.237 176.134 124.25 176.786C124.626 176.035 126.949 177.788 126.651 175.676Z" fill="black"/>
<path fill-rule="evenodd" clip-rule="evenodd" d="M250.833 99.0757C253.723 98.863 250.04 84.2693 247.934 85.5598C245.65 86.9585 248.18 99.2705 250.833 99.0757Z" fill="black"/>
<path fill-rule="evenodd" clip-rule="evenodd" d="M256.231 92.2611C258.939 92.6491 258.509 86.4261 257.052 85.3125C254.364 83.2566 252.943 91.79 256.231 92.2611Z" fill="black"/>
</svg>
