<svg width="90" height="90" viewBox="0 0 90 90" fill="none" xmlns="http://www.w3.org/2000/svg">
<g clip-path="url(#clip0)">
<path d="M47.1891 89.9999L46.6049 69.3443C46.6049 69.3443 45.5403 66.3921 50.3483 67.7139L67.8517 70.3122L66.2829 65.208C66.2829 65.208 65.6078 62.9093 67.0428 62.0171C68.4778 61.1248 86.9319 45.5721 86.9319 45.5721L83.2443 44.0712C83.2443 44.0712 81.0436 43.6243 82.0075 40.9587C82.9715 38.2931 84.9919 28.5552 84.9919 28.5552L73.7112 30.8654C73.6841 30.8636 71.7557 31.3945 71.6107 29.2401L70.3763 24.8595L61.0238 34.9873C61.0238 34.9873 60.3564 36.1341 59.3393 35.9081C58.3222 35.6821 58.1241 35.6902 57.7524 34.8738C57.3807 34.0574 58.4899 28.7266 58.502 28.5761C58.5141 28.4255 61.8413 11.5535 61.8413 11.5535L56.4353 14.6403C56.4353 14.6403 54.4769 16.2204 52.808 14.0831C51.139 11.9458 45.2584 0.719971 45.2584 0.719971L45.3484 90.0385L47.1891 89.9999Z" fill="#E60023"/>
<path d="M43.5078 89.9999L44.092 69.3443C44.092 69.3443 45.1565 66.3921 40.3486 67.7139L22.8451 70.3122L24.414 65.208C24.414 65.208 25.0891 62.9093 23.6541 62.0171C22.2191 61.1248 3.76495 45.5721 3.76495 45.5721L7.45259 44.0712C7.45259 44.0712 9.65328 43.6243 8.68931 40.9587C7.72535 38.2931 5.70498 28.5552 5.70498 28.5552L16.9856 30.8654C17.0128 30.8636 18.9411 31.3945 19.0862 29.2401L20.3205 24.8595L29.6731 34.9873C29.6731 34.9873 30.3404 36.1341 31.3575 35.9081C32.3746 35.6821 32.5727 35.6902 32.9444 34.8738C33.3161 34.0574 32.207 28.7266 32.1949 28.5761C32.1828 28.4255 28.8555 11.5535 28.8555 11.5535L34.2615 14.6403C34.2615 14.6403 36.2199 16.2204 37.8889 14.0831C39.5578 11.9458 45.2584 0.719971 45.2584 0.719971L45.3484 90.0385L43.5078 89.9999Z" fill="#BABABA"/>
</g>
<defs>
<clipPath id="clip0">
<rect width="90" height="90" fill="white"/>
</clipPath>
</defs>
</svg>
